# xmcd
#
# Track frame offsets: 
#        182
#        6635
#        31005
#        43285
#        62407
#        75395
#        102552
#        107095
#        126470
#        163327
#        186372
#
# Disc length: 2712 seconds
#
# Revision: 1
# Processed by: cddbd v1.5.2PL0 Copyright (c) Steve Scherf et al.
# Submitted via: ExactAudioCopy v0.99pb5
#
DISCID=970a960b
DTITLE=Karat - Albatros (244 107-2)
DYEAR=1979
DGENRE=DDR Rock
TTITLE0=Introduktion
TTITLE1=Koenig der Welt
TTITLE2=Blues
TTITLE3=Wilder Mohn
TTITLE4=Musik zu einem nicht existierenden Film
TTITLE5=Auf den Meeren
TTITLE6=Das, was ich will
TTITLE7=Gewitterregen
TTITLE8=Der Albatros
TTITLE9=Wenn das Schweigen bricht
TTITLE10=Ueber sieben Bruecken musst du gehn
EXTD=
EXTT0=
EXTT1=
EXTT2=
EXTT3=
EXTT4=
EXTT5=
EXTT6=
EXTT7=
EXTT8=
EXTT9=
EXTT10=
PLAYORDER=
